# xmcd
#
# Track frame offsets: 
#        183
#        30780
#        55790
#        77315
#        101033
#        118523
#        141833
#        160800
#        183670
#        204698
#
# Disc length: 3076 seconds
#
# Revision: 0
# Processed by: cddbd v1.5.2PL0 Copyright (c) Steve Scherf et al.
# Submitted via: ExactAudioCopy v1.3
#
DISCID=7a0c020a
DTITLE=Sinéad O'Connor - I do not want what I haven't got.
DYEAR=1990
DGENRE=Avantgarde
TTITLE0=1. "Feel So Different"
TTITLE1=2. "I Am Stretched on Your Grave"
TTITLE2=3. "Three Babies"
TTITLE3=4. "The Emperor's New Clothes"
TTITLE4=5. "Black Boys on Mopeds"
TTITLE5=6. "Nothing Compares 2 U"
TTITLE6=7. "Jump in the River"
TTITLE7=8. "You Cause as Much Sorrow"
TTITLE8=9. "The Last Day of Our Acquaintance"
TTITLE9=10. "I Do Not Want What I Haven't Got"
EXTD=
EXTT0=
EXTT1=
EXTT2=
EXTT3=
EXTT4=
EXTT5=
EXTT6=
EXTT7=
EXTT8=
EXTT9=
PLAYORDER=
